<svg width="70" height="70" viewBox="0 0 70 70" fill="none" xmlns="http://www.w3.org/2000/svg">
<path d="M54.4779 23.3305C56.6742 21.6983 58.2966 19.4227 59.1152 16.826C59.9337 14.2294 59.9071 11.4434 59.0389 8.86264C58.1707 6.28187 56.5051 4.03719 54.2779 2.44656C52.0507 0.855935 49.3749 0 46.6295 0H23.0845C20.3391 0 17.6633 0.855935 15.4361 2.44656C13.2089 4.03719 11.5433 6.28187 10.6751 8.86264C9.80694 11.4434 9.78026 14.2294 10.5988 16.826C11.4174 19.4227 13.0398 21.6983 15.2361 23.3305C13.5732 24.5654 12.2311 26.1751 11.321 28.0263C10.411 29.8775 9.95911 31.9169 10.0029 33.9756C10.0467 36.0343 10.5849 38.053 11.5728 39.8646C12.5608 41.6761 13.9701 43.2284 15.6841 44.3927C13.7346 45.8614 12.1956 47.7989 11.2129 50.0217C10.2303 52.2445 9.83644 54.679 10.0687 57.0948C10.301 59.5105 11.1517 61.8275 12.5403 63.8265C13.9289 65.8254 15.8094 67.44 18.0038 68.5175C20.1981 69.595 22.6337 70.0997 25.0799 69.9837C27.5262 69.8678 29.902 69.1351 31.9826 67.855C34.0632 66.5749 35.7796 64.7898 36.9693 62.6687C38.159 60.5476 38.7826 58.1606 38.7812 55.734V44.0687C40.1554 45.09 41.7192 45.833 43.3832 46.2555C45.0472 46.6779 46.7789 46.7714 48.4794 46.5307C50.1799 46.29 51.8159 45.7198 53.294 44.8525C54.7721 43.9853 56.0634 42.8381 57.094 41.4764C58.1247 40.1147 58.8746 38.5652 59.3009 36.9164C59.7272 35.2675 59.8216 33.5516 59.5787 31.8666C59.3357 30.1816 58.7603 28.5605 57.8851 27.0959C57.0099 25.6312 55.8521 24.3518 54.4779 23.3305ZM38.7812 5.18455H46.6295C48.7111 5.18455 50.7073 6.0039 52.1792 7.46233C53.651 8.92077 54.4779 10.8988 54.4779 12.9614C54.4779 15.0239 53.651 17.002 52.1792 18.4604C50.7073 19.9189 48.7111 20.7382 46.6295 20.7382H38.7812V5.18455ZM46.6295 41.4764C45.0773 41.4764 43.5599 41.0203 42.2692 40.1658C40.9786 39.3113 39.9726 38.0967 39.3786 36.6757C38.7846 35.2546 38.6292 33.691 38.932 32.1824C39.2348 30.6739 39.9823 29.2882 41.0799 28.2005C42.1775 27.1129 43.576 26.3723 45.0984 26.0722C46.6208 25.7721 48.1989 25.9261 49.633 26.5147C51.0671 27.1034 52.2928 28.1001 53.1552 29.379C54.0176 30.6579 54.4779 32.1615 54.4779 33.6996C54.4779 35.7621 53.651 37.7402 52.1792 39.1986C50.7073 40.6571 48.7111 41.4764 46.6295 41.4764Z" fill="black"/>
</svg>
