<svg width="404" height="224" viewBox="0 0 404 224" fill="none" xmlns="http://www.w3.org/2000/svg">
<path d="M193.167 29.3067L191.951 18.3256C175.633 13.3549 158.232 25.6968 147.651 39.683C141.61 47.8102 136.614 56.8256 141.762 64.9528C133.289 72.7775 133.289 90.0713 141.762 98.0473C136.614 106.174 141.61 115.19 147.651 123.317C157.947 136.85 171.092 145.733 184.694 145.733C198.752 145.733 210.093 134.147 210.093 120.009V109.331C210.093 102.111 207.376 98.0473 202.076 92.4906L194.059 83.9098C194.211 83.1538 194.211 82.549 194.211 81.8119C194.211 75.9528 189.975 71.738 184.086 71.738C178.501 71.738 174.113 75.9528 174.113 81.8119C174.113 87.0851 178.501 91.4321 184.086 91.4321C184.846 91.4321 185.454 91.2809 185.891 91.2809L194.211 100.013C197.384 103.472 198.904 106.023 198.904 110.238V120.009C198.904 132.2 188.93 137.303 177.893 133.24C170.485 130.537 162.924 124.961 155.971 115.946C149.778 107.365 151.127 103.32 154.603 100.901C157.624 99.1057 160.796 99.3892 166.248 106.174C165.963 107.063 165.811 108.121 165.811 109.18C165.811 114.736 170.352 119.253 175.785 119.253C181.218 119.253 185.606 114.736 185.606 109.18C185.606 103.774 181.218 99.2569 175.785 99.2569H175.025C168.528 90.9785 160.663 85.2706 149.778 90.9785C145.846 87.5198 146.454 75.1779 149.778 72.0215C160.663 77.7294 168.528 72.0215 175.025 63.7431H175.785C181.218 63.7431 185.606 59.226 185.606 53.8205C185.606 48.2638 181.218 43.7466 175.785 43.7466C170.352 43.7466 165.811 48.2638 165.811 53.8205C165.811 54.8789 165.963 55.9184 166.267 56.8256C160.834 63.5919 157.643 63.8944 154.622 62.0988C151.146 59.6985 149.778 55.6349 155.99 47.0542C164.596 35.9219 179.413 23.75 193.167 29.3067ZM210.833 133.693L212.049 144.674C228.367 149.645 245.768 137.303 256.349 123.317C262.39 115.19 267.386 106.174 262.238 98.0473C270.711 90.2225 270.711 72.9287 262.238 64.9528C267.386 56.8256 262.39 47.8102 256.349 39.683C246.053 26.1504 232.907 17.2861 219.306 17.2861C205.248 17.2861 193.907 28.872 193.907 43.0095V53.6882C193.907 60.9081 196.624 64.9717 201.924 70.5284L209.941 79.1091C209.789 79.8651 209.789 80.4699 209.789 81.2071C209.789 87.0662 214.025 91.2809 219.914 91.2809C225.499 91.2809 229.887 87.0662 229.887 81.2071C229.887 75.9339 225.499 71.5868 219.914 71.5868C219.154 71.5868 218.546 71.738 218.109 71.738L209.789 63.006C206.616 59.5473 205.096 56.9957 205.096 52.781V43.0095C205.096 30.8188 215.07 25.7157 226.107 29.7792C233.515 32.482 241.076 38.0576 248.029 47.0731C254.222 55.6538 252.873 59.6985 249.397 62.1177C246.376 63.9133 243.204 63.6297 237.752 56.8445C238.056 55.9373 238.208 54.8978 238.208 53.8394C238.208 48.2827 233.667 43.7655 228.234 43.7655C222.801 43.7655 218.413 48.2827 218.413 53.8394C218.413 59.2449 222.801 63.7621 228.234 63.7621H228.994C235.491 72.0404 243.356 77.7483 254.241 72.0404C258.173 75.4992 257.565 87.8411 254.241 90.9974C243.356 85.2895 235.491 90.9974 228.994 99.2758H228.234C222.801 99.2758 218.413 103.793 218.413 109.198C218.413 114.755 222.801 119.272 228.234 119.272C233.667 119.272 238.208 114.755 238.208 109.198C238.208 108.14 238.056 107.101 237.752 106.193C243.185 99.427 246.376 99.1246 249.397 100.92C252.873 103.32 254.241 107.384 248.029 115.965C239.404 127.078 224.587 139.25 210.833 133.693Z" fill="#191816"/>
<path d="M83.1262 191.545C81.6312 192.815 79.9643 193.795 78.1255 194.482C76.2867 195.155 74.3731 195.491 72.3848 195.491C70.8599 195.491 69.3873 195.29 67.9671 194.886C66.5618 194.497 65.2462 193.944 64.0203 193.227C62.7944 192.494 61.6732 191.627 60.6566 190.625C59.64 189.609 58.7729 188.487 58.0553 187.262C57.3377 186.021 56.7771 184.69 56.3735 183.27C55.9848 181.85 55.7904 180.377 55.7904 178.852C55.7904 177.327 55.9848 175.862 56.3735 174.457C56.7771 173.052 57.3377 171.736 58.0553 170.51C58.7729 169.269 59.64 168.148 60.6566 167.147C61.6732 166.13 62.7944 165.263 64.0203 164.545C65.2462 163.828 66.5618 163.275 67.9671 162.886C69.3873 162.482 70.8599 162.28 72.3848 162.28C74.3731 162.28 76.2867 162.624 78.1255 163.312C79.9643 163.985 81.6312 164.956 83.1262 166.227L79.7625 171.833C78.7908 170.847 77.6695 170.077 76.3988 169.524C75.1281 168.956 73.79 168.671 72.3848 168.671C70.9795 168.671 69.6564 168.941 68.4156 169.479C67.1897 170.017 66.1133 170.749 65.1864 171.676C64.2595 172.588 63.527 173.665 62.9888 174.906C62.4506 176.131 62.1815 177.447 62.1815 178.852C62.1815 180.273 62.4506 181.603 62.9888 182.844C63.527 184.085 64.2595 185.169 65.1864 186.096C66.1133 187.022 67.1897 187.755 68.4156 188.293C69.6564 188.831 70.9795 189.1 72.3848 189.1C73.192 189.1 73.9769 189.003 74.7394 188.809C75.5018 188.615 76.2269 188.345 76.9146 188.002V178.852H83.1262V191.545ZM96.9847 188.921C97.2239 188.996 97.4631 189.048 97.7023 189.078C97.9415 189.093 98.1807 189.1 98.4199 189.1C99.0179 189.1 99.5935 189.018 100.147 188.854C100.7 188.689 101.216 188.458 101.694 188.159C102.187 187.845 102.621 187.471 102.995 187.037C103.383 186.589 103.697 186.096 103.936 185.557L108.421 190.065C107.853 190.872 107.195 191.597 106.448 192.24C105.715 192.883 104.916 193.428 104.049 193.877C103.196 194.325 102.292 194.662 101.335 194.886C100.393 195.125 99.4216 195.245 98.4199 195.245C96.7306 195.245 95.1384 194.931 93.6435 194.303C92.1634 193.675 90.8628 192.801 89.7415 191.679C88.6352 190.558 87.7607 189.228 87.1178 187.688C86.475 186.133 86.1536 184.429 86.1536 182.575C86.1536 180.676 86.475 178.942 87.1178 177.372C87.7607 175.803 88.6352 174.465 89.7415 173.358C90.8628 172.252 92.1634 171.392 93.6435 170.779C95.1384 170.166 96.7306 169.86 98.4199 169.86C99.4216 169.86 100.401 169.98 101.358 170.219C102.314 170.458 103.219 170.802 104.071 171.25C104.938 171.699 105.745 172.252 106.493 172.91C107.24 173.553 107.898 174.278 108.466 175.085L96.9847 188.921ZM100.124 176.296C99.8402 176.191 99.5561 176.124 99.2721 176.094C99.003 176.064 98.7189 176.049 98.4199 176.049C97.5827 176.049 96.7904 176.206 96.0429 176.52C95.3104 176.819 94.6675 177.253 94.1144 177.821C93.5762 178.389 93.1501 179.077 92.8362 179.884C92.5222 180.676 92.3652 181.573 92.3652 182.575C92.3652 182.799 92.3727 183.053 92.3877 183.337C92.4176 183.621 92.4549 183.913 92.4998 184.212C92.5596 184.496 92.6269 184.772 92.7016 185.042C92.7764 185.311 92.8735 185.55 92.9931 185.759L100.124 176.296ZM120.934 188.921C121.174 188.996 121.413 189.048 121.652 189.078C121.891 189.093 122.13 189.1 122.37 189.1C122.968 189.1 123.543 189.018 124.096 188.854C124.649 188.689 125.165 188.458 125.644 188.159C126.137 187.845 126.571 187.471 126.944 187.037C127.333 186.589 127.647 186.096 127.886 185.557L132.371 190.065C131.803 190.872 131.145 191.597 130.398 192.24C129.665 192.883 128.865 193.428 127.998 193.877C127.146 194.325 126.242 194.662 125.285 194.886C124.343 195.125 123.371 195.245 122.37 195.245C120.68 195.245 119.088 194.931 117.593 194.303C116.113 193.675 114.812 192.801 113.691 191.679C112.585 190.558 111.71 189.228 111.068 187.688C110.425 186.133 110.103 184.429 110.103 182.575C110.103 180.676 110.425 178.942 111.068 177.372C111.71 175.803 112.585 174.465 113.691 173.358C114.812 172.252 116.113 171.392 117.593 170.779C119.088 170.166 120.68 169.86 122.37 169.86C123.371 169.86 124.35 169.98 125.307 170.219C126.264 170.458 127.168 170.802 128.021 171.25C128.888 171.699 129.695 172.252 130.443 172.91C131.19 173.553 131.848 174.278 132.416 175.085L120.934 188.921ZM124.074 176.296C123.79 176.191 123.506 176.124 123.222 176.094C122.953 176.064 122.669 176.049 122.37 176.049C121.532 176.049 120.74 176.206 119.993 176.52C119.26 176.819 118.617 177.253 118.064 177.821C117.526 178.389 117.1 179.077 116.786 179.884C116.472 180.676 116.315 181.573 116.315 182.575C116.315 182.799 116.322 183.053 116.337 183.337C116.367 183.621 116.405 183.913 116.449 184.212C116.509 184.496 116.577 184.772 116.651 185.042C116.726 185.311 116.823 185.55 116.943 185.759L124.074 176.296ZM141.677 194.796H135.511V161.226H141.677V182.395L150.804 170.824H157.846L149.885 180.826L157.846 194.796H150.804L145.938 186.073L141.677 191.724V194.796ZM184.307 182.575C184.307 184.459 183.985 186.178 183.343 187.733C182.7 189.287 181.825 190.625 180.719 191.747C179.613 192.853 178.312 193.712 176.817 194.325C175.337 194.938 173.745 195.245 172.04 195.245C170.351 195.245 168.759 194.931 167.264 194.303C165.784 193.675 164.483 192.801 163.362 191.679C162.256 190.558 161.381 189.228 160.738 187.688C160.096 186.133 159.774 184.429 159.774 182.575V161.226H165.919V172.439C166.247 172.02 166.644 171.646 167.107 171.318C167.585 170.989 168.094 170.72 168.632 170.51C169.185 170.301 169.753 170.144 170.336 170.039C170.919 169.92 171.487 169.86 172.04 169.86C173.745 169.86 175.337 170.181 176.817 170.824C178.312 171.452 179.613 172.334 180.719 173.47C181.825 174.607 182.7 175.952 183.343 177.507C183.985 179.047 184.307 180.736 184.307 182.575ZM178.14 182.575C178.14 181.648 177.976 180.788 177.647 179.996C177.333 179.189 176.899 178.494 176.346 177.91C175.793 177.327 175.143 176.871 174.395 176.543C173.663 176.214 172.878 176.049 172.04 176.049C171.203 176.049 170.411 176.236 169.663 176.61C168.931 176.969 168.288 177.454 167.735 178.067C167.182 178.665 166.748 179.361 166.434 180.153C166.12 180.93 165.963 181.738 165.963 182.575C165.963 183.502 166.12 184.361 166.434 185.154C166.748 185.946 167.182 186.634 167.735 187.217C168.288 187.8 168.931 188.263 169.663 188.607C170.411 188.936 171.203 189.1 172.04 189.1C172.878 189.1 173.663 188.936 174.395 188.607C175.143 188.263 175.793 187.8 176.346 187.217C176.899 186.634 177.333 185.946 177.647 185.154C177.976 184.361 178.14 183.502 178.14 182.575ZM193.837 194.796H187.715V170.779H189.195L191.214 173.627C192.2 172.73 193.322 172.043 194.577 171.564C195.833 171.071 197.134 170.824 198.479 170.824H203.884V176.924H198.479C197.836 176.924 197.231 177.043 196.663 177.283C196.095 177.522 195.601 177.851 195.183 178.269C194.764 178.688 194.435 179.181 194.196 179.749C193.957 180.317 193.837 180.923 193.837 181.566V194.796ZM229.538 194.796H228.058L225.681 191.5C225.098 192.023 224.477 192.516 223.819 192.98C223.176 193.428 222.496 193.825 221.779 194.168C221.061 194.497 220.321 194.759 219.559 194.953C218.811 195.148 218.049 195.245 217.271 195.245C215.582 195.245 213.99 194.961 212.495 194.393C211.015 193.825 209.714 193.002 208.593 191.926C207.487 190.835 206.612 189.504 205.969 187.934C205.326 186.365 205.005 184.578 205.005 182.575C205.005 180.706 205.326 178.994 205.969 177.44C206.612 175.87 207.487 174.524 208.593 173.403C209.714 172.282 211.015 171.415 212.495 170.802C213.99 170.174 215.582 169.86 217.271 169.86C218.049 169.86 218.819 169.957 219.581 170.151C220.343 170.346 221.083 170.615 221.801 170.959C222.519 171.303 223.199 171.706 223.842 172.17C224.5 172.633 225.112 173.134 225.681 173.672L228.058 170.824H229.538V194.796ZM223.371 182.575C223.371 181.738 223.206 180.93 222.877 180.153C222.564 179.361 222.13 178.665 221.577 178.067C221.024 177.454 220.373 176.969 219.626 176.61C218.893 176.236 218.108 176.049 217.271 176.049C216.434 176.049 215.642 176.191 214.894 176.475C214.162 176.759 213.519 177.178 212.966 177.731C212.428 178.284 212.001 178.972 211.688 179.794C211.374 180.601 211.217 181.528 211.217 182.575C211.217 183.621 211.374 184.556 211.688 185.378C212.001 186.185 212.428 186.865 212.966 187.419C213.519 187.972 214.162 188.39 214.894 188.674C215.642 188.958 216.434 189.1 217.271 189.1C218.108 189.1 218.893 188.921 219.626 188.562C220.373 188.188 221.024 187.703 221.577 187.105C222.13 186.492 222.564 185.797 222.877 185.019C223.206 184.227 223.371 183.412 223.371 182.575ZM241.445 164.254C241.445 164.822 241.333 165.353 241.109 165.846C240.9 166.339 240.608 166.773 240.234 167.147C239.861 167.505 239.419 167.797 238.911 168.021C238.418 168.23 237.887 168.335 237.319 168.335C236.751 168.335 236.213 168.23 235.704 168.021C235.211 167.797 234.778 167.505 234.404 167.147C234.045 166.773 233.753 166.339 233.529 165.846C233.32 165.353 233.215 164.822 233.215 164.254C233.215 163.701 233.32 163.177 233.529 162.684C233.753 162.176 234.045 161.742 234.404 161.383C234.778 161.01 235.211 160.718 235.704 160.509C236.213 160.285 236.751 160.172 237.319 160.172C237.887 160.172 238.418 160.285 238.911 160.509C239.419 160.718 239.861 161.01 240.234 161.383C240.608 161.742 240.9 162.176 241.109 162.684C241.333 163.177 241.445 163.701 241.445 164.254ZM240.391 194.796H234.224V170.779H240.391V194.796ZM251.2 194.796H245.078V170.779H246.558L248.576 173.112C249.563 172.215 250.677 171.527 251.918 171.048C253.173 170.555 254.481 170.308 255.842 170.308C257.307 170.308 258.69 170.593 259.99 171.161C261.291 171.714 262.427 172.484 263.399 173.47C264.371 174.442 265.133 175.586 265.686 176.901C266.254 178.202 266.539 179.592 266.539 181.072V194.796H260.417V181.072C260.417 180.444 260.297 179.854 260.058 179.301C259.819 178.733 259.49 178.239 259.071 177.821C258.652 177.402 258.167 177.073 257.613 176.834C257.06 176.595 256.47 176.475 255.842 176.475C255.199 176.475 254.594 176.595 254.026 176.834C253.457 177.073 252.964 177.402 252.545 177.821C252.127 178.239 251.798 178.733 251.559 179.301C251.32 179.854 251.2 180.444 251.2 181.072V194.796ZM284.097 194.796H270.104V188.697H284.097C284.516 188.697 284.875 188.547 285.174 188.248C285.473 187.949 285.622 187.59 285.622 187.172C285.622 186.738 285.473 186.454 285.174 186.32C284.875 186.185 284.516 186.118 284.097 186.118H277.729C276.667 186.118 275.673 185.916 274.746 185.512C273.819 185.109 273.012 184.563 272.324 183.875C271.636 183.173 271.091 182.358 270.687 181.431C270.298 180.504 270.104 179.51 270.104 178.449C270.104 177.387 270.298 176.393 270.687 175.466C271.091 174.539 271.636 173.732 272.324 173.044C273.012 172.357 273.819 171.818 274.746 171.43C275.673 171.026 276.667 170.824 277.729 170.824H290.129V176.924H277.729C277.31 176.924 276.951 177.073 276.652 177.372C276.353 177.671 276.204 178.03 276.204 178.449C276.204 178.882 276.353 179.256 276.652 179.57C276.951 179.869 277.31 180.018 277.729 180.018H284.097C285.144 180.018 286.13 180.198 287.057 180.557C287.984 180.9 288.791 181.386 289.479 182.014C290.167 182.642 290.712 183.397 291.116 184.279C291.52 185.161 291.722 186.125 291.722 187.172C291.722 188.233 291.52 189.228 291.116 190.154C290.712 191.066 290.167 191.874 289.479 192.576C288.791 193.264 287.984 193.81 287.057 194.213C286.13 194.602 285.144 194.796 284.097 194.796ZM302.53 192.509C302.53 193.047 302.433 193.555 302.239 194.034C302.044 194.497 301.775 194.901 301.431 195.245C301.088 195.589 300.684 195.858 300.221 196.052C299.757 196.261 299.256 196.366 298.718 196.366C298.195 196.366 297.694 196.261 297.216 196.052C296.752 195.858 296.341 195.589 295.982 195.245C295.638 194.901 295.362 194.497 295.153 194.034C294.958 193.555 294.861 193.047 294.861 192.509C294.861 191.986 294.958 191.492 295.153 191.029C295.362 190.566 295.638 190.162 295.982 189.818C296.341 189.474 296.752 189.205 297.216 189.011C297.694 188.801 298.195 188.697 298.718 188.697C299.256 188.697 299.757 188.801 300.221 189.011C300.684 189.205 301.088 189.474 301.431 189.818C301.775 190.162 302.044 190.566 302.239 191.029C302.433 191.492 302.53 191.986 302.53 192.509ZM313.227 194.796H307.105V170.779H308.585L310.603 173.627C311.59 172.73 312.711 172.043 313.967 171.564C315.223 171.071 316.523 170.824 317.869 170.824H323.273V176.924H317.869C317.226 176.924 316.621 177.043 316.052 177.283C315.484 177.522 314.991 177.851 314.572 178.269C314.154 178.688 313.825 179.181 313.586 179.749C313.347 180.317 313.227 180.923 313.227 181.566V194.796ZM343.59 191.993C343.097 192.442 342.566 192.868 341.998 193.271C341.445 193.66 340.862 194.004 340.249 194.303C339.636 194.587 339 194.811 338.343 194.976C337.7 195.155 337.042 195.245 336.369 195.245C334.889 195.245 333.499 194.983 332.198 194.46C330.898 193.937 329.754 193.197 328.767 192.24C327.796 191.268 327.026 190.095 326.458 188.719C325.904 187.329 325.628 185.774 325.628 184.055V170.779H331.727V184.055C331.727 184.862 331.847 185.587 332.086 186.23C332.34 186.858 332.677 187.389 333.095 187.822C333.514 188.256 334 188.585 334.553 188.809C335.121 189.033 335.726 189.145 336.369 189.145C336.997 189.145 337.588 189.003 338.141 188.719C338.709 188.42 339.202 188.032 339.621 187.553C340.04 187.075 340.368 186.537 340.608 185.939C340.847 185.326 340.966 184.698 340.966 184.055V170.779H347.088V194.796H345.608L343.59 191.993Z" fill="black"/>
</svg>
