<svg width="53" height="54" viewBox="0 0 53 54" fill="none" xmlns="http://www.w3.org/2000/svg">
<g clip-path="url(#clip0_1_64)">
<path d="M26.5 0.5C19.4734 0.5 12.7283 3.29368 7.76367 8.2616C2.79394 13.2315 0.00137663 19.9716 0 27C0 34.0254 2.79492 40.7705 7.76367 45.7384C12.7283 50.7063 19.4734 53.5 26.5 53.5C33.5266 53.5 40.2717 50.7063 45.2363 45.7384C50.2051 40.7705 53 34.0254 53 27C53 19.9746 50.2051 13.2295 45.2363 8.2616C40.2717 3.29368 33.5266 0.5 26.5 0.5Z" fill="url(#paint0_linear_1_64)"/>
<path d="M11.9954 26.7201C19.7218 23.3546 24.8727 21.1356 27.4482 20.0636C34.8102 17.0025 36.3381 16.4708 37.336 16.4528C37.5555 16.4493 38.0441 16.5035 38.3629 16.7613C38.6279 16.9787 38.7024 17.2726 38.7397 17.479C38.7728 17.6853 38.8184 18.1552 38.7811 18.5221C38.3836 22.7124 36.657 32.8809 35.7791 37.5743C35.4106 39.5602 34.6777 40.226 33.9697 40.291C32.4294 40.4326 31.2617 39.2741 29.7711 38.2973C27.4399 36.7681 26.1232 35.8166 23.8583 34.3248C21.2414 32.6006 22.9391 31.6528 24.4297 30.1042C24.8189 29.6989 31.6013 23.5314 31.7296 22.972C31.7462 22.902 31.7627 22.6412 31.6054 22.5037C31.4522 22.3658 31.2245 22.413 31.0588 22.4503C30.8228 22.5033 27.1004 24.9661 19.8791 29.8384C18.8233 30.5647 17.8668 30.9187 17.0055 30.9001C16.0615 30.8798 14.2396 30.3651 12.8856 29.9254C11.2294 29.3858 9.90852 29.1005 10.0245 28.1842C10.0824 27.7072 10.7408 27.219 11.9954 26.7201Z" fill="white"/>
</g>
<defs>
<linearGradient id="paint0_linear_1_64" x1="26.5" y1="0.5" x2="26.5" y2="53.5" gradientUnits="userSpaceOnUse">
<stop stop-color="#2AABEE"/>
<stop offset="1" stop-color="#229ED9"/>
</linearGradient>
<clipPath id="clip0_1_64">
<rect width="53" height="53" fill="white" transform="translate(0 0.5)"/>
</clipPath>
</defs>
</svg>
