<svg width="55" height="55" viewBox="0 0 55 55" fill="none" xmlns="http://www.w3.org/2000/svg">
<path d="M54.2351 3.53727C53.9308 3.27447 53.5605 3.09969 53.1642 3.03176C52.7679 2.96383 52.3605 3.00533 51.986 3.15178L2.22612 22.6251C1.52091 22.8993 0.923863 23.3952 0.524872 24.0381C0.125881 24.681 -0.0534611 25.4361 0.013844 26.1898C0.0811492 26.9434 0.391459 27.6548 0.898057 28.2169C1.40466 28.7789 2.08012 29.1611 2.82276 29.3061L15.7158 31.8375V46.2135C15.7132 46.9966 15.9459 47.7623 16.3837 48.4116C16.8215 49.0608 17.4442 49.5636 18.1711 49.8548C18.8969 50.1512 19.695 50.2223 20.4618 50.059C21.2285 49.8956 21.9284 49.5054 22.4704 48.939L28.6873 42.4912L38.5504 51.1242C39.262 51.7554 40.1798 52.1047 41.131 52.1063C41.5478 52.106 41.962 52.0406 42.3586 51.9124C43.0067 51.7067 43.5896 51.3349 44.0493 50.8339C44.5089 50.3329 44.8293 49.7202 44.9785 49.0568L54.9447 5.70042C55.0339 5.30941 55.0149 4.9015 54.8899 4.52044C54.7649 4.13937 54.5386 3.7995 54.2351 3.53727ZM41.1359 48.1778L20.8351 30.3766L50.0537 9.43499L41.1359 48.1778Z" fill="white"/>
</svg>
