<svg width="55" height="56" viewBox="0 0 55 56" fill="none" xmlns="http://www.w3.org/2000/svg">
<g clip-path="url(#clip0_1_60)">
<path d="M5.92974 26.6477C5.92857 30.6499 7.03154 34.5577 9.12882 38.0022L5.72916 49.7708L18.432 46.6129C21.9454 48.4264 25.882 49.3766 29.8823 49.3768H29.8928C43.0987 49.3768 53.8485 39.1884 53.8542 26.6656C53.8567 20.5974 51.3664 14.8912 46.842 10.5982C42.3184 6.30556 36.3021 3.94027 29.8919 3.9375C16.6845 3.9375 5.93539 14.1254 5.92993 26.6477" fill="url(#paint0_linear_1_60)"/>
<path d="M2.51197 26.6169C2.51053 31.22 3.7185 35.7136 6.01501 39.6745L2.29166 53.2083L16.204 49.5768C20.0373 51.6575 24.3532 52.7545 28.7449 52.7562H28.7562C43.2197 52.7562 54.9938 41.0382 55 26.6378C55.0025 19.6589 52.2748 13.0962 47.3202 8.15945C42.365 3.22328 35.7765 0.50287 28.7562 0.5C14.2902 0.5 2.51773 12.2163 2.51197 26.6169ZM10.7971 38.9924L10.2776 38.1715C8.0939 34.7148 6.94132 30.7203 6.94297 26.6185C6.9477 14.6491 16.7325 4.91103 28.7644 4.91103C34.5912 4.91349 40.0671 7.17476 44.1857 11.2775C48.3042 15.3807 50.5704 20.835 50.569 26.6362C50.5636 38.6056 40.7786 48.3449 28.7562 48.3449H28.7475C24.8329 48.3429 20.9937 47.2963 17.6454 45.3185L16.8486 44.8481L8.59278 47.003L10.7971 38.9922V38.9924Z" fill="url(#paint1_linear_1_60)"/>
<path d="M24.4509 15.3678C24.0074 14.3049 23.5406 14.2835 23.1188 14.2649C22.7734 14.2488 22.3786 14.25 21.9842 14.25C21.5893 14.25 20.9478 14.4102 20.4056 15.0485C19.8628 15.6875 18.3333 17.2316 18.3333 20.3722C18.3333 23.513 20.4549 26.5481 20.7506 26.9744C21.0467 27.3999 24.8463 34.051 30.8638 36.6097C35.8649 38.7361 36.8827 38.3132 37.9681 38.2066C39.0536 38.1003 41.4709 36.6629 41.9641 35.1722C42.4576 33.6818 42.4576 32.4043 42.3097 32.1373C42.1617 31.8713 41.7669 31.7116 41.1748 31.3925C40.5826 31.0732 37.6719 29.5289 37.1293 29.3158C36.5865 29.103 36.1919 28.9968 35.7971 29.6359C35.4023 30.2741 34.2685 31.7116 33.923 32.1373C33.5778 32.564 33.2322 32.6171 32.6403 32.2979C32.0479 31.9776 30.1413 31.3043 27.8792 29.1298C26.1192 27.4378 24.931 25.3483 24.5857 24.7091C24.2403 24.071 24.5487 23.725 24.8455 23.4069C25.1115 23.1209 25.4378 22.6615 25.7341 22.2889C26.0293 21.9161 26.1278 21.6501 26.3252 21.2244C26.5228 20.7983 26.4239 20.4255 26.2761 20.1062C26.1278 19.7869 24.9773 16.6299 24.4509 15.3678Z" fill="white"/>
</g>
<defs>
<linearGradient id="paint0_linear_1_60" x1="29.7917" y1="49.7708" x2="29.7917" y2="3.9375" gradientUnits="userSpaceOnUse">
<stop stop-color="#1FAF38"/>
<stop offset="1" stop-color="#60D669"/>
</linearGradient>
<linearGradient id="paint1_linear_1_60" x1="28.6458" y1="53.2083" x2="28.6458" y2="0.5" gradientUnits="userSpaceOnUse">
<stop stop-color="#F9F9F9"/>
<stop offset="1" stop-color="white"/>
</linearGradient>
<clipPath id="clip0_1_60">
<rect width="55" height="55" fill="white" transform="translate(0 0.5)"/>
</clipPath>
</defs>
</svg>
