<svg width="70" height="70" viewBox="0 0 70 70" fill="none" xmlns="http://www.w3.org/2000/svg">
<path d="M0 58.9527V10H18.3411C22.1344 10 25.4031 10.7226 28.1472 12.1679C30.8913 13.5666 33.0099 15.5946 34.503 18.252C35.9961 20.9095 36.7426 24.0797 36.7426 27.7629C36.7426 31.3993 35.9961 34.5463 34.503 37.2037C33.0099 39.8612 30.8913 41.9125 28.1472 43.3578C25.4031 44.7564 22.1344 45.4558 18.3411 45.4558H5.44784L9.80611 40.3507V58.9527H0ZM9.80611 41.6095L5.44784 36.2247H17.7963C20.8228 36.2247 23.0827 35.4787 24.5758 33.9868C26.0689 32.4949 26.8155 30.4203 26.8155 27.7629C26.8155 25.0588 26.0689 22.9608 24.5758 21.4689C23.0827 19.977 20.8228 19.2311 17.7963 19.2311H5.44784L9.80611 13.8463V41.6095Z" fill="black"/>
<path d="M54.625 59.5122C51.8405 59.5122 49.157 59.1392 46.5743 58.3933C44.032 57.6007 42.0142 56.6217 40.5211 55.4561L43.6688 47.6237C45.1619 48.696 46.9173 49.5818 48.935 50.2811C50.9931 50.9338 53.0108 51.2602 54.9882 51.2602C57.1673 51.2602 58.7008 50.9571 59.5886 50.351C60.5167 49.745 60.9808 48.9058 60.9808 47.8335C60.9808 46.9477 60.6176 46.295 59.8912 45.8754C59.2052 45.4091 58.2771 45.0595 57.1068 44.8264C55.9365 44.5933 54.6452 44.3602 53.2328 44.1271C51.8607 43.8939 50.4685 43.5909 49.0561 43.2179C47.6437 42.7983 46.3523 42.1923 45.1821 41.3997C44.0118 40.6071 43.0635 39.5348 42.3371 38.1828C41.6511 36.8308 41.308 35.0825 41.308 32.9379C41.308 30.5602 41.8932 28.4622 43.0635 26.6439C44.2741 24.8257 46.0093 23.4037 48.2692 22.3781C50.529 21.3058 53.2328 20.7696 56.3804 20.7696C58.5999 20.7696 60.8597 21.0493 63.1599 21.6088C65.4601 22.1683 67.377 22.9841 68.9104 24.0564L65.7628 31.8189C64.189 30.7466 62.595 30.024 60.9808 29.651C59.407 29.2314 57.8735 29.0216 56.3804 29.0216C54.282 29.0216 52.7485 29.348 51.78 30.0007C50.8115 30.6534 50.3272 31.4926 50.3272 32.5183C50.3272 33.4507 50.6703 34.15 51.3563 34.6162C52.0827 35.0825 53.031 35.4554 54.2013 35.7352C55.3715 36.0149 56.6427 36.2713 58.0148 36.5044C59.4272 36.6909 60.8396 36.9939 62.252 37.4135C63.6644 37.8331 64.9355 38.4392 66.0654 39.2318C67.2357 39.9777 68.1841 41.0267 68.9104 42.3787C69.6368 43.6841 70 45.4091 70 47.5537C70 49.8848 69.3947 51.9595 68.184 53.7777C66.9734 55.5494 65.218 56.948 62.9178 57.9737C60.658 58.9994 57.8937 59.5122 54.625 59.5122Z" fill="black"/>
</svg>
