<svg width="55" height="55" viewBox="0 0 55 55" fill="none" xmlns="http://www.w3.org/2000/svg">
<path d="M0 26.4C0 13.9549 0 7.73238 3.86619 3.86619C7.73238 0 13.9549 0 26.4 0L28.6 0C41.0451 0 47.2676 0 51.1338 3.86619C55 7.73238 55 13.9549 55 26.4V28.6C55 41.0451 55 47.2676 51.1338 51.1338C47.2676 55 41.0451 55 28.6 55H26.4C13.9549 55 7.73238 55 3.86619 51.1338C0 47.2676 0 41.0451 0 28.6L0 26.4Z" fill="#0077FF"/>
<path d="M29.2646 39.623C16.7292 39.623 9.57925 31.0292 9.28133 16.7292H15.5605C15.7667 27.2251 20.3958 31.6709 24.0625 32.5875V16.7292H29.9752V25.7813C33.596 25.3917 37.3997 21.2667 38.683 16.7292H44.5957C43.6103 22.3209 39.4853 26.4459 36.5519 28.1417C39.4853 29.5167 44.1834 33.1146 45.9709 39.623H39.4624C38.0645 35.2688 34.5814 31.9 29.9752 31.4417V39.623H29.2646Z" fill="white"/>
</svg>
